<?xml version="1.0" encoding="UTF-8"?>
<svg id="Lager_1" xmlns="http://www.w3.org/2000/svg" version="1.1" viewBox="0 0 399.08 442.3">
  <!-- Generator: Adobe Illustrator 29.0.1, SVG Export Plug-In . SVG Version: 2.1.0 Build 192)  -->
  <defs>
    <style>
      .st0 {
        fill: #5ea8dc;
      }

      .st0, .st1 {
        stroke: #fff;
        stroke-miterlimit: 10;
        stroke-opacity: 0;
        stroke-width: 1.5px;
      }

      .st1 {
        fill: none;
      }

      .st2 {
        fill: #849cb1;
      }

      .st3 {
        fill: #d7d8d8;
      }

      .st4, .st5 {
        fill: #fff;
      }

      .st5 {
        opacity: 0;
      }

      .st6 {
        fill: #5f605f;
      }
    </style>
  </defs>
  <polygon class="st4" points="372.41 253.35 343.21 251.91 343.21 277.88 372.41 253.35"/>
  <polygon class="st2" points="372.3 282.98 343.21 280.31 343.21 304.04 372.3 282.98"/>
  <g>
    <polygon class="st3" points="374.43 309.62 374.35 309.66 374.13 309.79 374.12 309.79 374.03 309.78 342.75 305.66 342.75 305.59 348.25 306.3 354.4 307.1 374.35 309.61 374.43 309.62"/>
    <polygon class="st5" points="374.33 310.54 373.93 310.52 342 306.32 342 304.81 342.85 304.84 354.5 306.35 376.69 309.14 374.33 310.54"/>
  </g>
  <polygon class="st2" points="398.13 249.94 375.52 252.79 375.52 279.17 398.13 249.94"/>
  <polygon class="st4" points="318.88 330.38 318.88 377.69 346.66 327.32 341.71 326.6 341.71 322.33 318.88 330.38"/>
  <polygon class="st4" points="398.24 222.62 375.1 222.62 375.1 250.61 398.24 222.62"/>
  <g>
    <polygon class="st3" points="348.02 326.4 347.84 326.73 342.46 325.95 348.02 326.4"/>
    <polygon class="st5" points="348.25 327.55 342.36 326.7 342.52 325.21 349.24 325.74 348.25 327.55"/>
  </g>
  <path class="st3" d="M353.09,351.82l-.02-23.57-4.83-.7-28.42,51.54,20.95-8.75c7.48-3.11,12.32-10.38,12.32-18.51Z"/>
  <g>
    <polygon class="st6" points="353.81 327.6 347.84 326.73 348.02 326.4 353.81 327.6"/>
    <polygon class="st5" points="353.71 328.34 346.67 327.32 347.63 325.55 353.96 326.86 353.71 328.34"/>
  </g>
  <polygon class="st2" points="318.88 297.24 318.88 327.69 341.71 298.77 341.71 291.26 318.88 297.24"/>
  <polygon class="st2" points="318.88 260.8 318.88 294.55 341.71 266.37 341.71 258.05 318.88 260.8"/>
  <polygon class="st4" points="341.71 232 319.86 259.17 341.71 256.54 341.71 232"/>
  <polygon class="st2" points="320.32 328.28 341.71 320.73 341.71 301.19 320.32 328.28"/>
  <polygon class="st2" points="342.74 229.43 342.74 222.62 320.32 222.62 320.32 257.36 342.74 229.43"/>
  <polygon class="st2" points="291.28 322.36 316.52 297.21 291.28 294.38 291.28 322.36"/>
  <path class="st2" d="M270.16,287h-2.12s-.66,0-.66,0c-1,0-1.99,0-2.98-.01l-22.19,28.48,32.56-8.26.03-20.22c-1.51.03-3.04.02-4.65.01Z"/>
  <polygon class="st2" points="198.83 222.62 160.64 222.62 160.64 269.92 198.83 222.62"/>
  <polygon class="st4" points="238.35 318 201.15 327.43 201.15 365.55 238.35 318"/>
  <path class="st4" d="M241.04,285.76v28.79l21.49-27.59h-.09c-7.8-.14-15.18-.55-21.4-1.2Z"/>
  <path class="st2" d="M201.15,277.92v46.63l29.62-40.57c-6.01-1.33-6.81-2.67-6.81-3.71,0-.13-.08-2.98-.08-2.98v-.07s.46-2.88.46-2.88l-23.19,3.58Z"/>
  <polygon class="st2" points="316.68 260.71 309.91 259.85 311.04 267.49 316.68 260.71"/>
  <path class="st3" d="M317.38,295.79v-33.58l-6.04,7.27,1.27,8.46c.17,1.92.17,1.98.17,2.02,0,.86,0,3.15-14.24,4.94l-6.93,7.99,25.77,2.89Z"/>
  <polygon class="st4" points="292.05 323.71 317.38 328.93 317.38 298.47 292.05 323.71"/>
  <polygon class="st2" points="291.13 371.32 316.92 330.37 291.22 325.07 291.13 371.32"/>
  <polygon class="st2" points="291.57 373.44 317.38 379.66 317.38 332.45 291.57 373.44"/>
  <path class="st2" d="M5.5,254.46l48.7-31.77c-21.02,1.03-39.69,13.21-48.7,31.77Z"/>
  <polygon class="st2" points="5.9 255.99 56.28 260.84 56.26 223.14 5.9 255.99"/>
  <polygon class="st4" points="59.11 222.62 94.89 256.79 94.9 222.62 59.11 222.62"/>
  <polygon class="st2" points="57.83 260.85 93.91 257.93 57.83 223.47 57.83 260.85"/>
  <polygon class="st4" points="96.38 255.44 96.38 291.18 125 324.8 125.05 257.45 96.38 255.44"/>
  <polygon class="st2" points="59 262.26 94.88 289.88 94.88 259.35 59 262.26"/>
  <polygon class="st2" points="344.29 250.46 373.6 251.9 373.6 223.57 344.29 250.46"/>
  <polygon class="st2" points="344.32 278.91 373.6 281.59 373.6 254.3 344.32 278.91"/>
  <polygon class="st3" points="373.6 283.88 344.42 305.02 373.6 308.96 373.6 283.88"/>
  <polygon class="st2" points="161.32 271.47 199.65 276.42 199.65 223.99 161.32 271.47"/>
  <polygon class="st4" points="198.8 277.82 160.64 272.89 160.64 316.46 198.8 277.82"/>
  <polygon class="st2" points="161.39 317.83 199.65 325.86 199.65 279.1 161.39 317.83"/>
  <polygon class="st4" points="198.58 327.23 160.64 319.21 160.64 354.42 198.58 327.23"/>
  <polygon class="st3" points="161.58 355.59 199.65 366.72 199.65 328.31 161.58 355.59"/>
  <polygon class="st2" points="158.14 253.88 126.55 223.67 126.55 255.95 158.14 253.88"/>
  <polygon class="st2" points="127.01 257.42 159.14 316.99 159.14 255.32 127.01 257.42"/>
  <polygon class="st2" points="158.75 319.42 126.55 259.72 126.5 325.92 158.75 319.42"/>
  <polygon class="st4" points="126.99 327.35 159.14 375.98 159.14 320.88 126.99 327.35"/>
  <polygon class="st3" points="158.71 378.04 126.5 329.33 126.5 387.63 158.71 378.04"/>
  <polygon class="st2" points="127.06 389.03 159.14 427.18 159.14 379.47 127.06 389.03"/>
  <polygon class="st3" points="158.66 428.94 126.5 390.69 126.5 442.3 158.66 428.94"/>
  <polygon class="st2" points="124 255.88 96.39 223.88 96.38 253.93 124 255.88"/>
  <polygon class="st2" points="123.7 325.59 96.37 293.5 96.36 319.24 123.7 325.59"/>
  <polygon class="st3" points="123.74 387.06 83.99 330.05 70.68 332.38 70.68 366.75 123.74 387.06"/>
  <path class="st2" d="M86.38,422.17l36.87,19.12-52.56-71.65v26.66c0,10.93,6.01,20.84,15.7,25.87Z"/>
  <polygon class="st2" points="57.83 296.57 93.85 290.98 57.83 263.25 57.83 296.57"/>
  <polygon class="st2" points="93.81 326.81 57.83 299.04 57.83 333.11 93.81 326.81"/>
  <path class="st2" d="M0,278.37v6.23l53.98,11.42-49.96-38.28c-2.67,6.55-4.03,13.48-4.03,20.63Z"/>
  <path class="st3" d="M22.11,322.41l31.66,9.79L0,286.88v6.03c0,13.55,8.89,25.4,22.11,29.5Z"/>
  <polygon class="st2" points="376.14 251.71 399.08 248.82 399.08 223.95 376.14 251.71"/>
  <polygon class="st3" points="376.28 281.15 399.08 275.37 399.08 251.68 376.28 281.15"/>
  <polygon class="st2" points="376.44 308.29 399.08 300.35 399.08 278.2 376.44 308.29"/>
  <polygon class="st4" points="397.44 302.51 375.1 310.35 375.1 328.54 397.44 302.51"/>
  <path class="st3" d="M399.08,313.75v-10.85l-22.43,26.14,14.74-4.73c4.6-1.47,7.69-5.71,7.69-10.56Z"/>
  <polygon class="st5" points="95.26 292.06 95.18 292.01 96.07 290.79 95.26 292.06"/>
  <polygon class="st4" points="58.84 297.93 94.86 325.73 94.88 292.34 58.84 297.93"/>
  <polygon class="st4" points="56.3 295.9 56.28 262.35 6.21 257.53 56.3 295.9"/>
  <polygon class="st2" points="1.92 286.54 56.33 332.39 56.3 298.04 1.92 286.54"/>
  <polygon class="st2" points="125 222.62 97.29 222.62 125.05 254.73 125 222.62"/>
  <polygon class="st5" points="95.73 292.2 95.52 290.72 95.8 292.19 95.73 292.2"/>
  <polygon class="st5" points="95.43 320.56 95.39 320.55 95.75 319.1 95.43 320.56"/>
  <polygon class="st4" points="71.96 368.78 125 441.13 125 389.09 71.96 368.78"/>
  <polygon class="st5" points="69.67 367.96 69.8 367.44 69.33 367.79 67.75 365.64 70.11 366.53 69.91 367.19 70.45 366.79 70.54 366.9 69.84 367.41 69.67 367.96"/>
  <polygon class="st2" points="96.36 320.78 96.36 327.89 85.62 329.77 125 386.25 125 327.43 96.36 320.78"/>
  <polygon class="st4" points="127.62 222.62 159.14 252.77 159.14 222.62 127.62 222.62"/>
  <path class="st1" d="M159.89,319.96"/>
  <polygon class="st2" points="273.7 309.03 241.04 317.31 241.04 353.79 273.7 309.03"/>
  <path class="st3" d="M274.75,328.13l.03-18.04-32.59,44.66,16.16-4.72c9.64-2.82,16.38-11.82,16.4-21.9Z"/>
  <polygon class="st2" points="202.42 366.35 239.54 355.52 239.54 318.91 202.42 366.35"/>
  <path class="st3" d="M239.55,285.59c-2.25-.27-3.49-.52-5.94-1.02l-1.22-.25-29.95,41.25,37.1-9.41c0-9.87.02-27.05,0-30.56Z"/>
  <polygon class="st2" points="202.15 276.24 224.58 272.78 229.62 240.81 202.15 276.24"/>
  <polygon class="st2" points="306.74 238.59 309.69 258.34 317.38 259.29 317.39 224.18 306.74 238.59"/>
  <path class="st2" d="M291.28,290.98l5.05-5.82c-1.65.18-3.34.34-5.05.48v5.34Z"/>
  <polygon class="st2" points="320.15 295.36 341.71 289.71 341.71 268.75 320.15 295.36"/>
  <path class="st0" d="M348.33,324.57"/>
  <polygon class="st2" points="372.9 222.62 344.21 222.62 344.21 248.92 372.9 222.62"/>
  <polygon class="st5" points="342.42 251.87 340.1 251.73 341.96 250.06 342.23 250.35 342.51 250.37 342.49 250.64 342.96 251.17 342.44 251.64 342.43 251.63 342.42 251.87"/>
  <rect class="st5" x="373.92" y="281.87" width=".53" height="1.5" transform="translate(-78.87 403.57) rotate(-52.01)"/>
  <path class="st1" d="M401.76,277.88"/>
  <polygon class="st2" points="397.95 277.21 375.1 283 375.1 307.58 397.95 277.21"/>
  <polygon class="st5" points="374.63 310.71 374.27 310.45 374.25 310.57 374.03 310.53 374.06 310.29 373.42 309.82 373.75 309.37 374.12 309.65 374.12 309.04 374.46 309.08 375.72 309.25 374.63 310.71"/>
  <polygon class="st5" points="342.39 280.24 340.07 280.01 341.99 278.43 342.22 278.72 342.54 278.75 342.5 279.06 342.94 279.59 342.42 280.02 342.41 280.02 342.39 280.24"/>
  <polygon class="st5" points="374.83 253.14 373.87 251.99 374.9 253.09 374.83 253.14"/>
  <polygon class="st4" points="371.86 310.24 343.21 306.37 343.21 324.73 371.86 310.24"/>
  <polygon class="st2" points="353.93 326.86 373.6 329.7 373.6 311.04 344.92 325.55 353.87 326.85 353.93 326.86"/>
  <path class="st2" d="M352.96,90.43c0-8.14-4.83-15.4-12.32-18.51l-21.9-9.15v156.86h22.84v-103.99l11.36-1.64.02-23.57Z"/>
  <polygon class="st3" points="343.08 116.95 343.08 219.63 373.48 219.63 373.48 112.55 343.08 116.95"/>
  <polygon class="st2" points="160.51 86.93 160.51 219.63 199.52 219.63 199.52 75.52 160.51 86.93"/>
  <polygon class="st3" points="126.42 -.11 126.42 219.63 159.01 219.63 159.01 13.51 126.42 -.11"/>
  <path class="st2" d="M124.87,219.63V0l-38.62,20.08c-9.68,5.03-15.69,14.95-15.69,25.87v63.9l25.69,4.49.03,105.28h28.6Z"/>
  <polygon class="st3" points="57.7 219.63 94.76 219.63 94.73 115.61 57.7 109.13 57.7 219.63"/>
  <path class="st2" d="M21.98,119.84C8.75,123.93-.13,135.78-.13,149.33v14.54c0,30.5,25.2,55.36,56.33,55.75v-110.37l-34.22,10.58Z"/>
  <path class="st2" d="M398.95,219.63v-91.14c0-4.85-3.09-9.1-7.69-10.56l-16.28-5.22v106.93h23.97Z"/>
  <path class="st3" d="M258.21,92.22l-57.2-16.69v144.11h116.23V62.59l-26.25,6.32.09,48.3.06.88v38.52c13.26,1.07,20.44,2.79,21.39,5.14h.19l-.09.86-8.01,54.18h-73.02l-.93-7.75-6.94-44,.11-2.81c-.01-.06-.03-.14-.03-.24,0-5.16,28.85-6.52,44.1-6.52,2.29,0,4.56.02,6.74.07l-.06-41.42c-.02-10.08-6.77-19.08-16.4-21.9Z"/>
  <polygon class="st4" points="231.88 224.34 304.6 224.34 306.41 236.46 316.64 222.62 201.15 222.62 201.15 275.08 230.1 237.74 230.82 233.19 231.88 224.34"/>
</svg>